<svg xmlns="http://www.w3.org/2000/svg" version="1.1" xmlns:xlink="http://www.w3.org/1999/xlink" xmlns:svgjs="http://svgjs.com/svgjs" width="512" height="512" x="0" y="0" viewBox="0 0 512.002 512.002" style="enable-background:new 0 0 512 512" xml:space="preserve" class=""><g> <path xmlns="http://www.w3.org/2000/svg" style="" d="M393.717,134.469c4.667,2.526,9.258-3.503,5.511-7.261c-0.077-0.076-0.153-0.154-0.229-0.231  c-85.085-85.085-223.036-85.085-308.122,0c-18.556,18.556-33.041,39.634-43.5,62.124l0,0l-32.851-13.195  c-3.432-1.379-7.009,1.646-6.218,5.259l26.286,120.153c0.704,3.218,4.459,4.679,7.153,2.782l99.121-69.781  c2.988-2.104,2.455-6.681-0.935-8.042l-35.508-14.261l0,0c8.743-14.2,19.259-27.618,31.566-39.924  C205.782,102.298,311.139,89.763,393.717,134.469z" fill="#fc3f49" data-original="#fc3f49"></path> <path xmlns="http://www.w3.org/2000/svg" style="" d="M139.931,226.278l-35.508-14.262c8.743-14.2,19.259-27.618,31.566-39.924  c38.924-38.924,88.911-60.03,139.838-63.338c-60.387-3.922-122.095,17.184-168.249,63.338c-9.981,9.981-21.025,23.714-29.507,36.123  c-3.007,4.399-1.458,10.437,3.29,12.857l18.995,9.682c4.439,2.262,4.883,8.43,0.815,11.306l-68.889,48.702l2.31,10.557  c0.704,3.218,4.459,4.679,7.153,2.782l99.121-69.781C143.853,232.217,143.321,227.639,139.931,226.278z" fill="#f4063f" data-original="#f4063f"></path> <path xmlns="http://www.w3.org/2000/svg" style="" d="M503.697,330.837l-26.285-120.153c-0.704-3.218-4.459-4.679-7.153-2.782l-99.121,69.781  c-2.988,2.103-2.455,6.681,0.935,8.042l35.507,14.262c-8.743,14.2-19.259,27.618-31.566,39.924  c-69.792,69.792-175.15,82.328-257.728,37.623c-4.667-2.526-9.258,3.503-5.511,7.261c0.076,0.076,0.153,0.153,0.229,0.231  c85.086,85.086,223.036,85.086,308.122,0c18.556-18.556,33.041-39.634,43.5-62.124l32.851,13.195  C500.912,337.476,504.487,334.451,503.697,330.837z" fill="#84c9fe" data-original="#84c9fe"></path> <path xmlns="http://www.w3.org/2000/svg" style="" d="M503.697,330.837l-26.285-120.153c-0.704-3.218-4.459-4.679-7.153-2.782l-14.901,10.49l16.794,75.582  c0.693,3.119-2.285,5.798-5.313,4.782l-7.608-2.553c-2.961-0.993-6.195,0.4-7.507,3.234l-10.862,23.464  c-10.46,22.489-24.944,43.568-43.5,62.124c-39.52,39.52-90.444,60.67-142.178,63.48c59.651,3.239,120.378-17.913,165.945-63.48  c18.556-18.556,33.041-39.634,43.5-62.124l32.851,13.195C500.912,337.476,504.487,334.451,503.697,330.837z" fill="#70b9e5" data-original="#70b9e5"></path> <g xmlns="http://www.w3.org/2000/svg"> <path style="" d="M150.93,229.074c-0.542-4.666-3.586-8.651-7.945-10.402l-26.27-10.552   c7.37-10.802,15.776-20.942,25.068-30.235c65.123-65.124,167.118-80.014,248.031-36.21c5.656,3.064,12.553,1.543,16.403-3.61   c3.823-5.121,3.324-12.121-1.157-16.613l-0.269-0.271c-42.699-42.699-99.471-66.215-159.857-66.215   c-60.385,0-117.157,23.515-159.856,66.215c-16.954,16.954-30.97,36.258-41.736,57.468L17.577,168.3   c-4.411-1.772-9.409-0.966-13.041,2.106s-5.255,7.865-4.239,12.511l14.031,64.134c0.968,4.421,5.331,7.225,9.758,6.255   c4.422-0.967,7.222-5.336,6.256-9.758l-12.583-57.51l26.559,10.667c4.043,1.626,8.649-0.199,10.487-4.148   c10.339-22.23,24.425-42.344,41.866-59.784c39.603-39.604,92.258-61.414,148.265-61.414c47.914,0,93.369,15.959,130.303,45.367   c-36.552-14.783-77.03-19.924-116.303-14.5c-49.09,6.781-93.608,28.936-128.743,64.071c-12.508,12.51-23.527,26.446-32.749,41.422   c-1.266,2.057-1.562,4.569-0.804,6.863c0.756,2.295,2.487,4.138,4.728,5.039l29.379,11.8l-89.304,62.87l-3.536-16.167   c-0.968-4.42-5.327-7.222-9.758-6.255c-4.422,0.967-7.222,5.336-6.256,9.758l4.692,21.444c0.919,4.199,3.858,7.637,7.865,9.195   c1.507,0.587,3.08,0.874,4.646,0.874c2.598,0,5.171-0.794,7.364-2.337l99.121-69.781   C149.423,238.317,151.472,233.74,150.93,229.074z" fill="#232323" data-original="#232323" class=""></path> <path style="" d="M511.704,329.086l-26.287-120.153c-0.919-4.199-3.858-7.636-7.864-9.195   c-4.006-1.559-8.496-1.013-12.011,1.462l-99.12,69.781c-3.841,2.703-5.891,7.28-5.349,11.946s3.585,8.652,7.945,10.404   l26.271,10.552c-7.37,10.802-15.776,20.941-25.069,30.234c-65.124,65.124-167.116,80.015-248.03,36.211   c-5.655-3.063-12.553-1.544-16.402,3.608c-3.826,5.119-3.326,12.121,1.214,16.676l0.209,0.21   c42.537,42.535,99.089,66.051,159.242,66.214c0.213,0,0.416,0,0.628,0c59.891-0.002,116.306-23.171,158.902-65.279   c3.219-3.182,3.25-8.371,0.068-11.589c-3.184-3.219-8.374-3.249-11.589-0.067c-75.915,75.046-195.718,80.06-277.587,15.223   c36.524,14.751,76.961,19.874,116.195,14.456c49.09-6.781,93.608-28.936,128.743-64.071c12.51-12.511,23.529-26.447,32.749-41.422   c1.266-2.058,1.561-4.569,0.804-6.863c-0.756-2.295-2.487-4.138-4.728-5.039l-29.379-11.8l89.304-62.871l23.682,108.252   l-26.558-10.667c-4.042-1.625-8.649,0.199-10.487,4.148c-5.799,12.467-12.862,24.405-20.995,35.485   c-2.678,3.649-1.892,8.778,1.757,11.456c3.649,2.679,8.777,1.893,11.455-1.757c7.238-9.861,13.692-20.354,19.241-31.277   l25.768,10.349c4.411,1.772,9.409,0.966,13.041-2.106C511.096,338.525,512.72,333.731,511.704,329.086z" fill="#232323" data-original="#232323" class=""></path> </g> <g xmlns="http://www.w3.org/2000/svg"> </g> <g xmlns="http://www.w3.org/2000/svg"> </g> <g xmlns="http://www.w3.org/2000/svg"> </g> <g xmlns="http://www.w3.org/2000/svg"> </g> <g xmlns="http://www.w3.org/2000/svg"> </g> <g xmlns="http://www.w3.org/2000/svg"> </g> <g xmlns="http://www.w3.org/2000/svg"> </g> <g xmlns="http://www.w3.org/2000/svg"> </g> <g xmlns="http://www.w3.org/2000/svg"> </g> <g xmlns="http://www.w3.org/2000/svg"> </g> <g xmlns="http://www.w3.org/2000/svg"> </g> <g xmlns="http://www.w3.org/2000/svg"> </g> <g xmlns="http://www.w3.org/2000/svg"> </g> <g xmlns="http://www.w3.org/2000/svg"> </g> <g xmlns="http://www.w3.org/2000/svg"> </g> </g></svg>