<svg xmlns="http://www.w3.org/2000/svg" xmlns:xlink="http://www.w3.org/1999/xlink" width="375" viewBox="0 0 375 64.5" height="64.5" version="1.0"><defs><clipPath id="a"><path d="M 4.304688 2.234375 L 63.84375 2.234375 L 63.84375 61.769531 L 4.304688 61.769531 Z M 4.304688 2.234375"/></clipPath><clipPath id="b"><path d="M 62.550781 15.445312 C 61.085938 9.574219 56.503906 4.992188 50.632812 3.527344 C 39.664062 1.800781 28.492188 1.800781 17.519531 3.527344 C 11.648438 4.992188 7.0625 9.574219 5.597656 15.445312 C 3.875 26.414062 3.875 37.589844 5.597656 48.558594 C 7.0625 54.429688 11.648438 59.011719 17.519531 60.476562 C 28.488281 62.203125 39.660156 62.203125 50.632812 60.476562 C 56.503906 59.011719 61.085938 54.429688 62.550781 48.558594 C 64.273438 37.589844 64.273438 26.414062 62.550781 15.445312 Z M 62.550781 15.445312"/></clipPath><linearGradient x1="0" gradientTransform="matrix(59.53845 0 0 59.53786 4.305 2.233)" y1="0" x2="1" gradientUnits="userSpaceOnUse" y2="0" xlink:type="simple" xlink:actuate="onLoad" id="c" xlink:show="other"><stop stop-color="#5E72E4" offset="0"/><stop stop-color="#5E72E4" offset=".063"/><stop stop-color="#5F72E4" offset=".078"/><stop stop-color="#6071E4" offset=".094"/><stop stop-color="#6071E4" offset=".109"/><stop stop-color="#6170E4" offset=".125"/><stop stop-color="#6170E4" offset=".141"/><stop stop-color="#6270E4" offset=".156"/><stop stop-color="#636FE4" offset=".172"/><stop stop-color="#636FE4" offset=".188"/><stop stop-color="#646FE4" offset=".203"/><stop stop-color="#656EE4" offset=".219"/><stop stop-color="#656EE4" offset=".234"/><stop stop-color="#666EE4" offset=".25"/><stop stop-color="#666DE4" offset=".266"/><stop stop-color="#676DE4" offset=".281"/><stop stop-color="#686DE4" offset=".297"/><stop stop-color="#686CE4" offset=".313"/><stop stop-color="#696CE4" offset=".328"/><stop stop-color="#6A6CE4" offset=".344"/><stop stop-color="#6A6BE4" offset=".359"/><stop stop-color="#6B6BE4" offset=".375"/><stop stop-color="#6B6BE4" offset=".391"/><stop stop-color="#6C6AE4" offset=".406"/><stop stop-color="#6D6AE4" offset=".422"/><stop stop-color="#6D6AE4" offset=".438"/><stop stop-color="#6E69E4" offset=".453"/><stop stop-color="#6F69E4" offset=".469"/><stop stop-color="#6F69E4" offset=".484"/><stop stop-color="#7068E4" offset=".5"/><stop stop-color="#7068E4" offset=".516"/><stop stop-color="#7168E4" offset=".531"/><stop stop-color="#7267E4" offset=".547"/><stop stop-color="#7267E4" offset=".563"/><stop stop-color="#7366E4" offset=".578"/><stop stop-color="#7466E4" offset=".594"/><stop stop-color="#7466E4" offset=".609"/><stop stop-color="#7565E4" offset=".625"/><stop stop-color="#7565E4" offset=".641"/><stop stop-color="#7665E4" offset=".656"/><stop stop-color="#7764E4" offset=".672"/><stop stop-color="#7764E4" offset=".688"/><stop stop-color="#7864E4" offset=".703"/><stop stop-color="#7863E4" offset=".719"/><stop stop-color="#7963E4" offset=".734"/><stop stop-color="#7A63E4" offset=".75"/><stop stop-color="#7A62E4" offset=".766"/><stop stop-color="#7B62E4" offset=".781"/><stop stop-color="#7C62E4" offset=".797"/><stop stop-color="#7C61E4" offset=".813"/><stop stop-color="#7D61E4" offset=".828"/><stop stop-color="#7D61E4" offset=".844"/><stop stop-color="#7E60E4" offset=".859"/><stop stop-color="#7F60E4" offset=".875"/><stop stop-color="#7F60E4" offset=".891"/><stop stop-color="#805FE4" offset=".906"/><stop stop-color="#815FE4" offset=".922"/><stop stop-color="#815FE4" offset=".938"/><stop stop-color="#825EE4" offset="1"/></linearGradient></defs><g fill="#344767"><g><g><path d="M 20.296875 -7.875 C 20.296875 -5.3125 19.375 -3.289062 17.53125 -1.8125 C 15.6875 -0.34375 13.125 0.390625 9.84375 0.390625 C 6.820312 0.390625 4.148438 -0.175781 1.828125 -1.3125 L 1.828125 -6.90625 C 3.734375 -6.050781 5.347656 -5.445312 6.671875 -5.09375 C 7.992188 -4.75 9.207031 -4.578125 10.3125 -4.578125 C 11.625 -4.578125 12.628906 -4.828125 13.328125 -5.328125 C 14.035156 -5.828125 14.390625 -6.578125 14.390625 -7.578125 C 14.390625 -8.128906 14.234375 -8.617188 13.921875 -9.046875 C 13.617188 -9.484375 13.164062 -9.898438 12.5625 -10.296875 C 11.96875 -10.703125 10.742188 -11.347656 8.890625 -12.234375 C 7.160156 -13.046875 5.863281 -13.828125 5 -14.578125 C 4.132812 -15.328125 3.441406 -16.195312 2.921875 -17.1875 C 2.410156 -18.1875 2.15625 -19.347656 2.15625 -20.671875 C 2.15625 -23.179688 3.003906 -25.148438 4.703125 -26.578125 C 6.398438 -28.015625 8.75 -28.734375 11.75 -28.734375 C 13.21875 -28.734375 14.617188 -28.554688 15.953125 -28.203125 C 17.296875 -27.859375 18.695312 -27.375 20.15625 -26.75 L 18.21875 -22.078125 C 16.707031 -22.691406 15.457031 -23.117188 14.46875 -23.359375 C 13.476562 -23.609375 12.503906 -23.734375 11.546875 -23.734375 C 10.410156 -23.734375 9.535156 -23.46875 8.921875 -22.9375 C 8.316406 -22.414062 8.015625 -21.726562 8.015625 -20.875 C 8.015625 -20.34375 8.140625 -19.878906 8.390625 -19.484375 C 8.640625 -19.085938 9.03125 -18.707031 9.5625 -18.34375 C 10.101562 -17.976562 11.375 -17.316406 13.375 -16.359375 C 16.019531 -15.085938 17.832031 -13.816406 18.8125 -12.546875 C 19.800781 -11.273438 20.296875 -9.71875 20.296875 -7.875 Z M 20.296875 -7.875" transform="translate(79.71 46.7)"/></g></g></g><g fill="#344767"><g><g><path d="M 18.453125 0 L 17.65625 -2.765625 L 17.34375 -2.765625 C 16.707031 -1.765625 15.804688 -0.988281 14.640625 -0.4375 C 13.484375 0.113281 12.160156 0.390625 10.671875 0.390625 C 8.128906 0.390625 6.210938 -0.289062 4.921875 -1.65625 C 3.628906 -3.019531 2.984375 -4.976562 2.984375 -7.53125 L 2.984375 -21.671875 L 8.890625 -21.671875 L 8.890625 -9.015625 C 8.890625 -7.453125 9.164062 -6.28125 9.71875 -5.5 C 10.28125 -4.71875 11.171875 -4.328125 12.390625 -4.328125 C 14.035156 -4.328125 15.226562 -4.878906 15.96875 -5.984375 C 16.707031 -7.085938 17.078125 -8.914062 17.078125 -11.46875 L 17.078125 -21.671875 L 22.984375 -21.671875 L 22.984375 0 Z M 18.453125 0" transform="translate(101.57 46.7)"/></g></g></g><g fill="#344767"><g><g><path d="M 22.5 0 L 16.59375 0 L 16.59375 -12.65625 C 16.59375 -14.21875 16.328125 -15.390625 15.796875 -16.171875 C 15.273438 -16.953125 14.453125 -17.34375 13.328125 -17.34375 C 11.816406 -17.34375 10.71875 -16.785156 10.03125 -15.671875 C 9.351562 -14.566406 9.015625 -12.738281 9.015625 -10.1875 L 9.015625 0 L 3.09375 0 L 3.09375 -21.671875 L 7.609375 -21.671875 L 8.40625 -18.890625 L 8.734375 -18.890625 C 9.316406 -19.890625 10.15625 -20.671875 11.25 -21.234375 C 12.351562 -21.796875 13.613281 -22.078125 15.03125 -22.078125 C 18.28125 -22.078125 20.476562 -21.015625 21.625 -18.890625 L 22.15625 -18.890625 C 22.726562 -19.898438 23.578125 -20.679688 24.703125 -21.234375 C 25.835938 -21.796875 27.117188 -22.078125 28.546875 -22.078125 C 31.003906 -22.078125 32.859375 -21.445312 34.109375 -20.1875 C 35.367188 -18.925781 36 -16.90625 36 -14.125 L 36 0 L 30.078125 0 L 30.078125 -12.65625 C 30.078125 -14.21875 29.8125 -15.390625 29.28125 -16.171875 C 28.757812 -16.953125 27.9375 -17.34375 26.8125 -17.34375 C 25.375 -17.34375 24.296875 -16.828125 23.578125 -15.796875 C 22.859375 -14.765625 22.5 -13.125 22.5 -10.875 Z M 22.5 0" transform="translate(127.654 46.7)"/></g></g></g><g fill="#344767"><g><g><path d="M 7.8125 -10.875 C 7.8125 -8.726562 8.160156 -7.101562 8.859375 -6 C 9.566406 -4.90625 10.71875 -4.359375 12.3125 -4.359375 C 13.882812 -4.359375 15.015625 -4.90625 15.703125 -6 C 16.398438 -7.09375 16.75 -8.71875 16.75 -10.875 C 16.75 -13.019531 16.398438 -14.628906 15.703125 -15.703125 C 15.003906 -16.773438 13.859375 -17.3125 12.265625 -17.3125 C 10.691406 -17.3125 9.554688 -16.773438 8.859375 -15.703125 C 8.160156 -14.640625 7.8125 -13.03125 7.8125 -10.875 Z M 22.796875 -10.875 C 22.796875 -7.34375 21.863281 -4.582031 20 -2.59375 C 18.132812 -0.601562 15.546875 0.390625 12.234375 0.390625 C 10.148438 0.390625 8.3125 -0.0625 6.71875 -0.96875 C 5.132812 -1.882812 3.914062 -3.191406 3.0625 -4.890625 C 2.207031 -6.597656 1.78125 -8.59375 1.78125 -10.875 C 1.78125 -14.414062 2.703125 -17.164062 4.546875 -19.125 C 6.398438 -21.09375 9 -22.078125 12.34375 -22.078125 C 14.425781 -22.078125 16.257812 -21.625 17.84375 -20.71875 C 19.4375 -19.8125 20.660156 -18.507812 21.515625 -16.8125 C 22.367188 -15.125 22.796875 -13.144531 22.796875 -10.875 Z M 22.796875 -10.875" transform="translate(166.625 46.7)"/></g></g></g><g fill="#344767"><g><g><path d="M 20.296875 -7.875 C 20.296875 -5.3125 19.375 -3.289062 17.53125 -1.8125 C 15.6875 -0.34375 13.125 0.390625 9.84375 0.390625 C 6.820312 0.390625 4.148438 -0.175781 1.828125 -1.3125 L 1.828125 -6.90625 C 3.734375 -6.050781 5.347656 -5.445312 6.671875 -5.09375 C 7.992188 -4.75 9.207031 -4.578125 10.3125 -4.578125 C 11.625 -4.578125 12.628906 -4.828125 13.328125 -5.328125 C 14.035156 -5.828125 14.390625 -6.578125 14.390625 -7.578125 C 14.390625 -8.128906 14.234375 -8.617188 13.921875 -9.046875 C 13.617188 -9.484375 13.164062 -9.898438 12.5625 -10.296875 C 11.96875 -10.703125 10.742188 -11.347656 8.890625 -12.234375 C 7.160156 -13.046875 5.863281 -13.828125 5 -14.578125 C 4.132812 -15.328125 3.441406 -16.195312 2.921875 -17.1875 C 2.410156 -18.1875 2.15625 -19.347656 2.15625 -20.671875 C 2.15625 -23.179688 3.003906 -25.148438 4.703125 -26.578125 C 6.398438 -28.015625 8.75 -28.734375 11.75 -28.734375 C 13.21875 -28.734375 14.617188 -28.554688 15.953125 -28.203125 C 17.296875 -27.859375 18.695312 -27.375 20.15625 -26.75 L 18.21875 -22.078125 C 16.707031 -22.691406 15.457031 -23.117188 14.46875 -23.359375 C 13.476562 -23.609375 12.503906 -23.734375 11.546875 -23.734375 C 10.410156 -23.734375 9.535156 -23.46875 8.921875 -22.9375 C 8.316406 -22.414062 8.015625 -21.726562 8.015625 -20.875 C 8.015625 -20.34375 8.140625 -19.878906 8.390625 -19.484375 C 8.640625 -19.085938 9.03125 -18.707031 9.5625 -18.34375 C 10.101562 -17.976562 11.375 -17.316406 13.375 -16.359375 C 16.019531 -15.085938 17.832031 -13.816406 18.8125 -12.546875 C 19.800781 -11.273438 20.296875 -9.71875 20.296875 -7.875 Z M 20.296875 -7.875" transform="translate(191.198 46.7)"/></g></g></g><g fill="#344767"><g><g><path d="M 19.875 0 L 3.5625 0 L 3.5625 -28.328125 L 19.875 -28.328125 L 19.875 -23.40625 L 9.578125 -23.40625 L 9.578125 -17.1875 L 19.171875 -17.1875 L 19.171875 -12.265625 L 9.578125 -12.265625 L 9.578125 -4.96875 L 19.875 -4.96875 Z M 19.875 0" transform="translate(213.057 46.7)"/></g></g></g><g fill="#344767"><g><g><path d="M 29.28125 -14.203125 C 29.28125 -9.515625 28.117188 -5.910156 25.796875 -3.390625 C 23.472656 -0.867188 20.140625 0.390625 15.796875 0.390625 C 11.453125 0.390625 8.117188 -0.867188 5.796875 -3.390625 C 3.472656 -5.910156 2.3125 -9.53125 2.3125 -14.25 C 2.3125 -18.957031 3.472656 -22.554688 5.796875 -25.046875 C 8.128906 -27.535156 11.472656 -28.78125 15.828125 -28.78125 C 20.179688 -28.78125 23.507812 -27.523438 25.8125 -25.015625 C 28.125 -22.515625 29.28125 -18.910156 29.28125 -14.203125 Z M 8.609375 -14.203125 C 8.609375 -11.035156 9.207031 -8.648438 10.40625 -7.046875 C 11.601562 -5.453125 13.398438 -4.65625 15.796875 -4.65625 C 20.585938 -4.65625 22.984375 -7.835938 22.984375 -14.203125 C 22.984375 -20.585938 20.597656 -23.78125 15.828125 -23.78125 C 13.441406 -23.78125 11.640625 -22.972656 10.421875 -21.359375 C 9.210938 -19.753906 8.609375 -17.367188 8.609375 -14.203125 Z M 8.609375 -14.203125" transform="translate(235.285 46.7)"/></g></g></g><g fill="#344767"><g><g><path d="M 14.5 0 L 8.484375 0 L 8.484375 -23.328125 L 0.796875 -23.328125 L 0.796875 -28.328125 L 22.1875 -28.328125 L 22.1875 -23.328125 L 14.5 -23.328125 Z M 14.5 0" transform="translate(266.873 46.7)"/></g></g></g><g fill="#344767"><g><g><path d="M 7.8125 -10.875 C 7.8125 -8.726562 8.160156 -7.101562 8.859375 -6 C 9.566406 -4.90625 10.71875 -4.359375 12.3125 -4.359375 C 13.882812 -4.359375 15.015625 -4.90625 15.703125 -6 C 16.398438 -7.09375 16.75 -8.71875 16.75 -10.875 C 16.75 -13.019531 16.398438 -14.628906 15.703125 -15.703125 C 15.003906 -16.773438 13.859375 -17.3125 12.265625 -17.3125 C 10.691406 -17.3125 9.554688 -16.773438 8.859375 -15.703125 C 8.160156 -14.640625 7.8125 -13.03125 7.8125 -10.875 Z M 22.796875 -10.875 C 22.796875 -7.34375 21.863281 -4.582031 20 -2.59375 C 18.132812 -0.601562 15.546875 0.390625 12.234375 0.390625 C 10.148438 0.390625 8.3125 -0.0625 6.71875 -0.96875 C 5.132812 -1.882812 3.914062 -3.191406 3.0625 -4.890625 C 2.207031 -6.597656 1.78125 -8.59375 1.78125 -10.875 C 1.78125 -14.414062 2.703125 -17.164062 4.546875 -19.125 C 6.398438 -21.09375 9 -22.078125 12.34375 -22.078125 C 14.425781 -22.078125 16.257812 -21.625 17.84375 -20.71875 C 19.4375 -19.8125 20.660156 -18.507812 21.515625 -16.8125 C 22.367188 -15.125 22.796875 -13.144531 22.796875 -10.875 Z M 22.796875 -10.875" transform="translate(289.857 46.7)"/></g></g></g><g fill="#344767"><g><g><path d="M 7.8125 -10.875 C 7.8125 -8.726562 8.160156 -7.101562 8.859375 -6 C 9.566406 -4.90625 10.71875 -4.359375 12.3125 -4.359375 C 13.882812 -4.359375 15.015625 -4.90625 15.703125 -6 C 16.398438 -7.09375 16.75 -8.71875 16.75 -10.875 C 16.75 -13.019531 16.398438 -14.628906 15.703125 -15.703125 C 15.003906 -16.773438 13.859375 -17.3125 12.265625 -17.3125 C 10.691406 -17.3125 9.554688 -16.773438 8.859375 -15.703125 C 8.160156 -14.640625 7.8125 -13.03125 7.8125 -10.875 Z M 22.796875 -10.875 C 22.796875 -7.34375 21.863281 -4.582031 20 -2.59375 C 18.132812 -0.601562 15.546875 0.390625 12.234375 0.390625 C 10.148438 0.390625 8.3125 -0.0625 6.71875 -0.96875 C 5.132812 -1.882812 3.914062 -3.191406 3.0625 -4.890625 C 2.207031 -6.597656 1.78125 -8.59375 1.78125 -10.875 C 1.78125 -14.414062 2.703125 -17.164062 4.546875 -19.125 C 6.398438 -21.09375 9 -22.078125 12.34375 -22.078125 C 14.425781 -22.078125 16.257812 -21.625 17.84375 -20.71875 C 19.4375 -19.8125 20.660156 -18.507812 21.515625 -16.8125 C 22.367188 -15.125 22.796875 -13.144531 22.796875 -10.875 Z M 22.796875 -10.875" transform="translate(314.43 46.7)"/></g></g></g><g fill="#344767"><g><g><path d="M 9.015625 0 L 3.09375 0 L 3.09375 -30.15625 L 9.015625 -30.15625 Z M 9.015625 0" transform="translate(339.002 46.7)"/></g></g></g><g fill="#344767"><g><g><path d="M 18.21875 -6.4375 C 18.21875 -4.207031 17.441406 -2.507812 15.890625 -1.34375 C 14.347656 -0.1875 12.039062 0.390625 8.96875 0.390625 C 7.394531 0.390625 6.050781 0.28125 4.9375 0.0625 C 3.832031 -0.144531 2.796875 -0.457031 1.828125 -0.875 L 1.828125 -5.75 C 2.921875 -5.238281 4.15625 -4.804688 5.53125 -4.453125 C 6.90625 -4.109375 8.117188 -3.9375 9.171875 -3.9375 C 11.316406 -3.9375 12.390625 -4.554688 12.390625 -5.796875 C 12.390625 -6.253906 12.242188 -6.628906 11.953125 -6.921875 C 11.671875 -7.210938 11.179688 -7.539062 10.484375 -7.90625 C 9.785156 -8.28125 8.851562 -8.710938 7.6875 -9.203125 C 6.019531 -9.898438 4.796875 -10.546875 4.015625 -11.140625 C 3.234375 -11.734375 2.664062 -12.414062 2.3125 -13.1875 C 1.957031 -13.957031 1.78125 -14.90625 1.78125 -16.03125 C 1.78125 -17.945312 2.523438 -19.429688 4.015625 -20.484375 C 5.515625 -21.546875 7.632812 -22.078125 10.375 -22.078125 C 12.976562 -22.078125 15.515625 -21.503906 17.984375 -20.359375 L 16.203125 -16.109375 C 15.117188 -16.566406 14.101562 -16.941406 13.15625 -17.234375 C 12.21875 -17.535156 11.253906 -17.6875 10.265625 -17.6875 C 8.523438 -17.6875 7.65625 -17.21875 7.65625 -16.28125 C 7.65625 -15.75 7.9375 -15.289062 8.5 -14.90625 C 9.0625 -14.519531 10.289062 -13.941406 12.1875 -13.171875 C 13.882812 -12.492188 15.125 -11.859375 15.90625 -11.265625 C 16.695312 -10.671875 17.28125 -9.984375 17.65625 -9.203125 C 18.03125 -8.429688 18.21875 -7.507812 18.21875 -6.4375 Z M 18.21875 -6.4375" transform="translate(351.114 46.7)"/></g></g></g><g clip-path="url(#a)"><g clip-path="url(#b)"><path fill="url(#c)" d="M 4.304688 2.234375 L 4.304688 61.769531 L 63.84375 61.769531 L 63.84375 2.234375 Z M 4.304688 2.234375"/></g></g><path fill="#FFF" d="M 17.253906 38.1875 L 20.324219 35.117188 C 20.4375 35.003906 20.574219 34.949219 20.734375 34.949219 C 20.894531 34.949219 21.035156 35.003906 21.148438 35.117188 L 24.027344 38 C 24.140625 38.113281 24.199219 38.25 24.199219 38.410156 C 24.199219 38.570312 24.140625 38.707031 24.027344 38.824219 L 20.957031 41.894531 C 20.84375 42.007812 20.707031 42.0625 20.546875 42.0625 C 20.386719 42.0625 20.25 42.007812 20.136719 41.894531 L 17.253906 39.011719 C 17.140625 38.898438 17.085938 38.761719 17.085938 38.597656 C 17.085938 38.4375 17.140625 38.300781 17.253906 38.1875 Z M 17.253906 38.1875"/><path fill="#FFF" d="M 24.644531 41.320312 L 29.296875 41.320312 C 29.457031 41.320312 29.59375 41.378906 29.707031 41.492188 C 29.820312 41.605469 29.878906 41.742188 29.878906 41.902344 L 29.878906 47.714844 C 29.878906 47.875 29.820312 48.015625 29.707031 48.128906 C 29.59375 48.242188 29.457031 48.296875 29.296875 48.296875 L 24.644531 48.296875 C 24.484375 48.296875 24.347656 48.242188 24.234375 48.128906 C 24.121094 48.015625 24.0625 47.875 24.0625 47.714844 L 24.0625 41.902344 C 24.0625 41.742188 24.121094 41.605469 24.234375 41.492188 C 24.347656 41.378906 24.484375 41.320312 24.644531 41.320312 Z M 24.644531 41.320312"/><path fill="#FFF" d="M 31.621094 38.910156 L 36.273438 38.910156 C 36.433594 38.910156 36.570312 38.96875 36.683594 39.082031 C 36.800781 39.195312 36.855469 39.332031 36.855469 39.492188 L 36.855469 47.714844 C 36.855469 47.875 36.800781 48.015625 36.683594 48.128906 C 36.570312 48.242188 36.433594 48.296875 36.273438 48.296875 L 31.621094 48.296875 C 31.460938 48.296875 31.324219 48.242188 31.210938 48.128906 C 31.097656 48.015625 31.042969 47.875 31.042969 47.714844 L 31.042969 39.492188 C 31.042969 39.332031 31.097656 39.195312 31.210938 39.082031 C 31.324219 38.96875 31.460938 38.910156 31.621094 38.910156 Z M 31.621094 38.910156"/><path fill="#FFF" d="M 38.601562 35.175781 L 43.25 35.175781 C 43.410156 35.175781 43.550781 35.230469 43.664062 35.34375 C 43.777344 35.457031 43.832031 35.59375 43.832031 35.753906 L 43.832031 47.714844 C 43.832031 47.875 43.777344 48.015625 43.664062 48.128906 C 43.550781 48.242188 43.410156 48.296875 43.25 48.296875 L 38.601562 48.296875 C 38.441406 48.296875 38.300781 48.242188 38.1875 48.128906 C 38.074219 48.015625 38.019531 47.875 38.019531 47.714844 L 38.019531 35.753906 C 38.019531 35.59375 38.074219 35.457031 38.1875 35.34375 C 38.300781 35.230469 38.441406 35.175781 38.601562 35.175781 Z M 38.601562 35.175781"/><path fill="#FFF" d="M 45.578125 32.015625 L 50.230469 32.015625 C 50.390625 32.015625 50.527344 32.074219 50.640625 32.1875 C 50.753906 32.300781 50.808594 32.4375 50.808594 32.597656 L 50.808594 47.714844 C 50.808594 47.875 50.753906 48.015625 50.640625 48.128906 C 50.527344 48.242188 50.390625 48.296875 50.230469 48.296875 L 45.578125 48.296875 C 45.417969 48.296875 45.28125 48.242188 45.167969 48.128906 C 45.050781 48.015625 44.996094 47.875 44.996094 47.714844 L 44.996094 32.597656 C 44.996094 32.4375 45.050781 32.300781 45.167969 32.1875 C 45.28125 32.074219 45.417969 32.015625 45.578125 32.015625 Z M 45.578125 32.015625"/><path fill="#FFF" d="M 24.023438 36.570312 C 24.136719 36.683594 24.273438 36.742188 24.433594 36.742188 C 24.59375 36.742188 24.730469 36.683594 24.84375 36.570312 L 27.363281 34.054688 C 27.707031 34.304688 28.066406 34.535156 28.441406 34.742188 C 28.8125 34.949219 29.199219 35.128906 29.597656 35.289062 C 29.992188 35.449219 30.398438 35.582031 30.808594 35.6875 C 31.222656 35.796875 31.640625 35.878906 32.066406 35.9375 C 32.488281 35.992188 32.914062 36.023438 33.339844 36.023438 C 33.769531 36.027344 34.195312 36.003906 34.617188 35.953125 C 35.042969 35.90625 35.460938 35.828125 35.875 35.726562 C 36.289062 35.625 36.699219 35.496094 37.097656 35.34375 C 37.496094 35.191406 37.882812 35.015625 38.261719 34.8125 C 38.636719 34.613281 39 34.390625 39.347656 34.144531 C 39.699219 33.894531 40.03125 33.628906 40.34375 33.339844 C 40.660156 33.054688 40.957031 32.746094 41.234375 32.421875 C 41.511719 32.097656 41.769531 31.757812 42.003906 31.402344 C 42.238281 31.046875 42.453125 30.675781 42.640625 30.292969 C 42.828125 29.910156 42.996094 29.515625 43.132812 29.113281 C 43.273438 28.710938 43.390625 28.296875 43.476562 27.882812 C 43.566406 27.464844 43.628906 27.042969 43.667969 26.617188 C 43.703125 26.191406 43.710938 25.765625 43.695312 25.335938 C 43.679688 24.910156 43.636719 24.488281 43.566406 24.066406 C 43.496094 23.644531 43.402344 23.226562 43.28125 22.820312 C 43.160156 22.410156 43.015625 22.007812 42.84375 21.617188 C 42.671875 21.226562 42.476562 20.847656 42.257812 20.480469 C 42.039062 20.113281 41.800781 19.761719 41.539062 19.421875 C 41.277344 19.085938 40.992188 18.765625 40.691406 18.464844 C 40.390625 18.164062 40.070312 17.878906 39.734375 17.617188 C 39.394531 17.355469 39.042969 17.117188 38.675781 16.898438 C 38.308594 16.679688 37.929688 16.484375 37.539062 16.3125 C 37.148438 16.140625 36.746094 15.996094 36.339844 15.875 C 35.929688 15.753906 35.511719 15.65625 35.09375 15.589844 C 34.671875 15.519531 34.246094 15.476562 33.820312 15.457031 C 33.394531 15.441406 32.964844 15.453125 32.542969 15.488281 C 32.117188 15.523438 31.695312 15.585938 31.277344 15.675781 C 30.859375 15.765625 30.449219 15.878906 30.042969 16.019531 C 29.640625 16.160156 29.246094 16.324219 28.863281 16.511719 C 28.480469 16.703125 28.113281 16.914062 27.753906 17.148438 C 27.398438 17.382812 27.058594 17.640625 26.734375 17.917969 C 26.410156 18.195312 26.101562 18.492188 25.816406 18.808594 C 25.527344 19.121094 25.261719 19.453125 25.011719 19.804688 C 24.765625 20.152344 24.542969 20.515625 24.34375 20.890625 C 24.140625 21.269531 23.964844 21.65625 23.8125 22.054688 C 23.65625 22.453125 23.53125 22.859375 23.429688 23.277344 C 23.328125 23.691406 23.25 24.109375 23.199219 24.535156 C 23.148438 24.957031 23.125 25.382812 23.128906 25.8125 C 23.132812 26.238281 23.164062 26.664062 23.21875 27.085938 C 23.273438 27.511719 23.355469 27.929688 23.464844 28.339844 C 23.574219 28.753906 23.707031 29.160156 23.863281 29.554688 C 24.023438 29.953125 24.207031 30.339844 24.410156 30.710938 C 24.617188 31.085938 24.847656 31.445312 25.097656 31.789062 L 22.582031 34.308594 C 22.46875 34.421875 22.410156 34.558594 22.410156 34.71875 C 22.410156 34.878906 22.46875 35.015625 22.582031 35.128906 Z M 28.101562 20.425781 C 28.453125 20.074219 28.832031 19.765625 29.242188 19.488281 C 29.652344 19.214844 30.085938 18.984375 30.539062 18.796875 C 30.996094 18.605469 31.464844 18.464844 31.949219 18.367188 C 32.433594 18.273438 32.921875 18.222656 33.414062 18.222656 C 33.910156 18.222656 34.398438 18.273438 34.882812 18.367188 C 35.367188 18.464844 35.835938 18.605469 36.289062 18.796875 C 36.746094 18.984375 37.179688 19.214844 37.589844 19.488281 C 38 19.765625 38.378906 20.074219 38.726562 20.425781 C 39.078125 20.773438 39.386719 21.152344 39.664062 21.5625 C 39.9375 21.972656 40.167969 22.40625 40.355469 22.863281 C 40.546875 23.316406 40.6875 23.789062 40.785156 24.269531 C 40.882812 24.753906 40.929688 25.242188 40.929688 25.738281 C 40.929688 26.230469 40.882812 26.71875 40.785156 27.203125 C 40.6875 27.6875 40.546875 28.15625 40.355469 28.613281 C 40.167969 29.066406 39.9375 29.5 39.664062 29.910156 C 39.386719 30.320312 39.078125 30.699219 38.726562 31.050781 C 38.378906 31.398438 38 31.710938 37.589844 31.984375 C 37.179688 32.257812 36.746094 32.488281 36.289062 32.679688 C 35.835938 32.867188 35.367188 33.007812 34.882812 33.105469 C 34.398438 33.203125 33.910156 33.25 33.414062 33.25 C 32.921875 33.25 32.433594 33.203125 31.949219 33.105469 C 31.464844 33.007812 30.996094 32.867188 30.539062 32.679688 C 30.085938 32.488281 29.652344 32.257812 29.242188 31.984375 C 28.832031 31.710938 28.453125 31.398438 28.101562 31.050781 C 27.753906 30.699219 27.441406 30.320312 27.167969 29.910156 C 26.894531 29.5 26.664062 29.066406 26.476562 28.613281 C 26.285156 28.15625 26.144531 27.6875 26.046875 27.203125 C 25.953125 26.71875 25.902344 26.230469 25.902344 25.738281 C 25.902344 25.242188 25.953125 24.753906 26.046875 24.269531 C 26.144531 23.789062 26.285156 23.316406 26.476562 22.863281 C 26.664062 22.40625 26.894531 21.972656 27.167969 21.5625 C 27.441406 21.152344 27.753906 20.773438 28.101562 20.425781 Z M 28.101562 20.425781" fill-rule="evenodd"/></svg>