<svg version="1.2" baseProfile="tiny-ps" xmlns="http://www.w3.org/2000/svg" viewBox="0 0 176 176" width="176" height="176">
	<title>base64-encode-svg</title>
	<style>
		tspan { white-space:pre }
		.shp0 { fill: #ebe7f2 } 
		.shp1 { fill: #846f75 } 
		.shp2 { fill: #f9b087 } 
	</style>
	<g id="Layer">
		<g id="Layer">
			<path id="Layer" class="shp0" d="M3 164.25L173 164.25L173 173L3 173L3 164.25Z" />
			<path id="Layer" class="shp0" d="M22.78 134.59L41.41 134.59L41.41 153.22L22.78 153.22L22.78 134.59Z" />
			<path id="Layer" class="shp0" d="M60.05 134.59L78.68 134.59L78.68 153.22L60.05 153.22L60.05 134.59Z" />
			<path id="Layer" class="shp0" d="M97.32 134.59L115.95 134.59L115.95 153.22L97.32 153.22L97.32 134.59Z" />
			<path id="Layer" class="shp0" d="M41.42 115.95L60.05 115.95L60.05 134.58L41.42 134.58L41.42 115.95Z" />
			<path id="Layer" class="shp0" d="M78.68 115.95L97.32 115.95L97.32 134.58L78.68 134.58L78.68 115.95Z" />
			<path id="Layer" class="shp0" d="M22.78 97.32L41.41 97.32L41.41 115.95L22.78 115.95L22.78 97.32Z" />
			<path id="Layer" class="shp0" d="M60.05 97.32L78.68 97.32L78.68 115.95L60.05 115.95L60.05 97.32Z" />
			<path id="Layer" class="shp0" d="M41.42 78.68L60.05 78.68L60.05 97.32L41.42 97.32L41.42 78.68Z" />
			<path id="Layer" class="shp0" d="M22.78 60.05L41.41 60.05L41.41 78.68L22.78 78.68L22.78 60.05Z" />
			<path id="Layer" fill-rule="evenodd" class="shp1" d="M175.5 3L175.5 173C175.5 174.38 174.38 175.5 173 175.5L3 175.5C1.62 175.5 0.5 174.38 0.5 173L0.5 3C0.5 1.62 1.62 0.5 3 0.5L173 0.5C174.38 0.5 175.5 1.62 175.5 3ZM170.5 5.5L5.5 5.5L5.5 170.5L170.5 170.5L170.5 5.5ZM22.78 155.72C21.4 155.72 20.28 154.6 20.28 153.22L20.28 41.41C20.28 40.03 21.4 38.91 22.78 38.91L41.42 38.91C42.8 38.91 43.92 40.03 43.92 41.41L43.92 57.55L60.05 57.55C61.43 57.55 62.55 58.67 62.55 60.05L62.55 76.18L78.68 76.18C80.06 76.18 81.18 77.3 81.18 78.68L81.18 94.82L97.32 94.82C98.7 94.82 99.82 95.94 99.82 97.32L99.82 113.45L115.95 113.45C117.33 113.45 118.45 114.57 118.45 115.95L118.45 132.08L134.59 132.08C135.97 132.08 137.09 133.2 137.09 134.58L137.09 153.22C137.09 154.6 135.97 155.72 134.59 155.72L22.78 155.72ZM25.28 150.72L132.09 150.72L132.09 137.09L115.95 137.09C114.57 137.09 113.45 135.97 113.45 134.59L113.45 118.45L97.32 118.45C95.94 118.45 94.82 117.33 94.82 115.95L94.82 99.82L78.68 99.82C77.3 99.82 76.18 98.7 76.18 97.32L76.18 81.18L60.05 81.18C58.67 81.18 57.55 80.06 57.55 78.68L57.55 62.55L41.42 62.55C40.03 62.55 38.92 61.43 38.92 60.05L38.92 43.91L25.28 43.91L25.28 150.72Z" />
			<g id="Layer">
				<path id="Layer" class="shp2" d="M79.97 38.12C81.24 38.12 82.27 39.14 82.27 40.41L82.27 54.46C82.27 55.72 81.24 56.75 79.97 56.75L65.93 56.75C64.66 56.75 63.63 55.73 63.63 54.46L63.63 40.41C63.63 39.14 64.66 38.12 65.93 38.12L79.97 38.12L79.97 38.12Z" />
				<path id="Layer" class="shp2" d="M100.76 58.9L100.76 72.95C100.76 74.22 99.73 75.24 98.46 75.24L84.42 75.24C83.15 75.24 82.12 74.22 82.12 72.95L82.12 58.9C82.12 57.64 83.15 56.61 84.42 56.61L98.46 56.61C99.73 56.61 100.76 57.64 100.76 58.9Z" />
				<path id="Layer" class="shp2" d="M100.9 21.78L100.9 35.82C100.9 37.09 99.87 38.12 98.61 38.12L84.56 38.12C83.29 38.12 82.27 37.09 82.27 35.82L82.27 21.78C82.27 20.51 83.29 19.48 84.56 19.48L98.61 19.48C99.87 19.48 100.9 20.51 100.9 21.78Z" />
				<path id="Layer" class="shp2" d="M63.63 21.78L63.63 35.82C63.63 37.09 62.61 38.12 61.34 38.12L47.29 38.12C46.03 38.12 45 37.09 45 35.82L45 21.78C45 20.51 46.03 19.48 47.29 19.48L61.34 19.48C62.61 19.48 63.63 20.51 63.63 21.78Z" />
				<path id="Layer" class="shp2" d="M117.1 75.24C118.36 75.24 119.39 76.27 119.39 77.54L119.39 91.58C119.39 92.85 118.37 93.88 117.1 93.88L103.05 93.88C101.78 93.88 100.76 92.85 100.76 91.58L100.76 77.54C100.76 76.27 101.78 75.24 103.05 75.24L117.1 75.24L117.1 75.24Z" />
				<path id="Layer" class="shp2" d="M154.37 75.24C155.63 75.24 156.66 76.27 156.66 77.54L156.66 91.58C156.66 92.85 155.63 93.88 154.37 93.88L140.32 93.88C139.05 93.88 138.03 92.85 138.03 91.58L138.03 77.54C138.03 76.27 139.05 75.24 140.32 75.24L154.37 75.24L154.37 75.24Z" />
				<path id="Layer" class="shp2" d="M156.66 114.8L156.66 128.85C156.66 130.12 155.63 131.14 154.37 131.14L140.32 131.14C139.05 131.14 138.03 130.12 138.03 128.85L138.03 114.8C138.03 113.54 139.05 112.51 140.32 112.51L154.37 112.51C155.63 112.51 156.66 113.54 156.66 114.8Z" />
				<path id="Layer" class="shp2" d="M117.24 38.12C118.51 38.12 119.54 39.14 119.53 40.41L119.53 54.46C119.53 55.72 118.51 56.75 117.24 56.75L103.19 56.75C101.93 56.75 100.9 55.73 100.9 54.46L100.9 40.41C100.9 39.14 101.93 38.12 103.19 38.12L117.24 38.12L117.24 38.12Z" />
				<path id="Layer" class="shp2" d="M138.03 96.17L138.03 110.22C138.03 111.48 137 112.51 135.73 112.51L121.69 112.51C120.42 112.51 119.39 111.48 119.39 110.22L119.39 96.17C119.39 94.9 120.42 93.88 121.69 93.88L135.73 93.88C137 93.88 138.03 94.9 138.03 96.17Z" />
				<path id="Layer" class="shp2" d="M138.03 58.9L138.03 72.95C138.03 74.22 137 75.24 135.73 75.24L121.69 75.24C120.42 75.24 119.39 74.22 119.39 72.95L119.39 58.9C119.39 57.64 120.42 56.61 121.69 56.61L135.73 56.61C137 56.61 138.03 57.64 138.03 58.9Z" />
				<path id="Layer" class="shp2" d="M138.17 21.78L138.17 35.82C138.17 37.09 137.14 38.12 135.88 38.12L121.83 38.12C120.56 38.12 119.53 37.09 119.53 35.82L119.53 21.78C119.53 20.51 120.56 19.48 121.83 19.48L135.88 19.48C137.14 19.48 138.17 20.51 138.17 21.78Z" />
				<path id="Layer" class="shp2" d="M156.66 40.27L156.66 54.31C156.66 55.58 155.63 56.61 154.37 56.61L140.32 56.61C139.05 56.61 138.03 55.58 138.03 54.31L138.03 40.27C138.03 39 139.05 37.97 140.32 37.97L154.37 37.97C155.63 37.97 156.66 39 156.66 40.27Z" />
			</g>
		</g>
	</g>
</svg>