<svg id="Filled" height="512" viewBox="0 0 512 512" width="512" xmlns="http://www.w3.org/2000/svg"><path d="m376 488h-304a32 32 0 0 1 -32-32v-400a32 32 0 0 1 32-32h240l96 96v336a32 32 0 0 1 -32 32z" fill="#e9eef2"/><path d="m408 120h-64a32 32 0 0 1 -32-32v-64z" fill="#c3c6c7"/><circle cx="368" cy="384" fill="#6ed2f0" r="104"/><path d="m72 496h296a111.991 111.991 0 0 0 48-213.179v-162.821a8 8 0 0 0 -2.343-5.657l-96-96a8 8 0 0 0 -5.657-2.343h-240a40.045 40.045 0 0 0 -40 40v400a40.045 40.045 0 0 0 40 40zm392-112a96 96 0 1 1 -96-96 96.108 96.108 0 0 1 96 96zm-144-340.687 68.687 68.687h-44.687a24.027 24.027 0 0 1 -24-24zm-272 12.687a24.028 24.028 0 0 1 24-24h232v56a40.045 40.045 0 0 0 40 40h56v148.666a111.983 111.983 0 0 0 -89.631 203.334h-238.369a24.028 24.028 0 0 1 -24-24z"/><path d="m160 168a8 8 0 0 0 8 8h192a8 8 0 0 0 0-16h-192a8 8 0 0 0 -8 8z"/><path d="m88 224h160a8 8 0 0 0 0-16h-160a8 8 0 0 0 0 16z"/><path d="m280 256h-64a8 8 0 0 0 0 16h64a8 8 0 0 0 0-16z"/><path d="m88 320h144a8 8 0 0 0 0-16h-144a8 8 0 0 0 0 16z"/><path d="m88 176h48a8 8 0 0 0 0-16h-48a8 8 0 0 0 0 16z"/><path d="m360 208h-80a8 8 0 0 0 0 16h80a8 8 0 0 0 0-16z"/><path d="m88 272h96a8 8 0 0 0 0-16h-96a8 8 0 0 0 0 16z"/><path d="m216 400h-32a8 8 0 0 0 0 16h32a8 8 0 0 0 0-16z"/><path d="m88 416h64a8 8 0 0 0 0-16h-64a8 8 0 0 0 0 16z"/><path d="m88 368h48a8 8 0 0 0 0-16h-48a8 8 0 0 0 0 16z"/><path d="m88 128h96a8 8 0 0 0 0-16h-96a8 8 0 0 0 0 16z"/><path d="m216 352h-48a8 8 0 0 0 0 16h48a8 8 0 0 0 0-16z"/><path d="m304.774 348.567a8 8 0 0 0 14.452 6.866 48 48 0 0 1 88.25 3.529l-8.428-5.618a8 8 0 0 0 -8.875 13.312l23.95 15.967.035.023.015.01.021.012a7.948 7.948 0 0 0 .923.52c.066.033.132.066.2.1a7.936 7.936 0 0 0 .975.372c.053.016.108.026.162.041a7.887 7.887 0 0 0 .845.186c.1.017.2.033.3.045a7.96 7.96 0 0 0 .945.069h.064s.04 0 .061 0a8.141 8.141 0 0 0 .846-.051c.079-.009.158-.025.237-.036.225-.032.447-.071.666-.121.084-.02.168-.043.251-.065.215-.057.425-.122.632-.2.081-.029.162-.057.243-.089.218-.086.431-.182.639-.286.062-.031.126-.058.188-.091a8.114 8.114 0 0 0 .75-.453c.072-.049.14-.106.211-.158.169-.124.335-.252.494-.389.086-.074.169-.151.252-.229.15-.14.293-.287.432-.438.065-.071.132-.14.2-.214a8.106 8.106 0 0 0 .562-.738l16-24a8 8 0 0 0 -13.312-8.876l-4.92 7.38a64 64 0 0 0 -118.261-6.375z"/><path d="m427.433 408.774a8 8 0 0 0 -10.659 3.793 48 48 0 0 1 -88.25-3.529l8.428 5.618a8 8 0 0 0 8.875-13.312l-23.95-15.967-.035-.023-.015-.01c-.027-.018-.056-.032-.083-.05-.193-.125-.39-.245-.594-.354-.077-.041-.155-.074-.233-.112-.156-.077-.313-.155-.475-.222-.111-.046-.224-.082-.336-.123-.132-.047-.262-.1-.4-.139s-.287-.075-.431-.11c-.108-.026-.214-.057-.324-.079-.179-.035-.358-.059-.538-.082-.08-.01-.158-.025-.238-.033-.23-.023-.459-.032-.689-.035-.033 0-.066 0-.1 0h-.009c-.268 0-.536.014-.8.041-.119.012-.233.036-.351.053-.137.02-.276.035-.413.063-.188.038-.372.088-.555.139-.065.018-.131.03-.195.05-.171.052-.338.116-.5.179-.077.029-.155.053-.232.084-.141.059-.276.127-.413.194-.1.047-.2.091-.3.143s-.211.124-.316.186-.242.14-.359.219c-.079.052-.153.112-.229.168-.135.1-.27.192-.4.3-.063.051-.12.109-.182.162-.133.117-.267.232-.393.358s-.226.244-.336.369c-.061.068-.126.131-.185.2a8.019 8.019 0 0 0 -.48.647v.006l-16 24a8 8 0 1 0 13.312 8.876l4.92-7.38a64 64 0 0 0 118.261 6.375 8 8 0 0 0 -3.798-10.663z"/></svg>