<svg xmlns="http://www.w3.org/2000/svg" version="1.1" xmlns:xlink="http://www.w3.org/1999/xlink" xmlns:svgjs="http://svgjs.com/svgjs" width="512" height="512" x="0" y="0" viewBox="0 0 511.809 511.809" style="enable-background:new 0 0 512 512" xml:space="preserve" class=""><g><g xmlns="http://www.w3.org/2000/svg"><g><g><g><g><g><g><g><g><g><g><g><path d="m50.897 7.5h192.337l92.237 91.514v311.771c0 5.115-4.162 9.261-9.297 9.261h-275.277c-5.134 0-9.297-4.146-9.297-9.261v-394.024c0-5.115 4.162-9.261 9.297-9.261z" fill="#fff9e9" data-original="#fff9e9" class=""></path></g></g></g></g><path d="m295.224 59.083.247 39.932v311.771c0 5.115-4.162 9.261-9.297 9.261h40c5.134 0 9.297-4.146 9.297-9.261v-311.772z" fill="#fff4d6" data-original="#fff4d6" class=""></path><path d="m243.234 7.5v82.854c0 5.115 4.162 9.261 9.297 9.261h82.94z" fill="#ffeec2" data-original="#ffeec2"></path></g></g></g></g></g></g><g><g><path d="m459.391 361.871.887-62.982c.095-6.746-2.543-13.244-7.314-18.015l-26.323-26.323c-4.771-4.771-11.269-7.409-18.015-7.314l-62.982.887c-6.502.092-12.713 2.715-17.311 7.314l-118.001 118.002c-9.755 9.755-9.755 25.571 0 35.326l88.417 88.417c9.755 9.755 25.571 9.755 35.326 0l118.001-118.001c4.6-4.598 7.224-10.809 7.315-17.311zm-79.692-34.054c-9.177-9.177-9.177-24.057 0-33.234s24.057-9.177 33.234 0 9.177 24.057 0 33.234-24.057 9.177-33.234 0z" fill="#ffabe7" data-original="#ffabe7"></path><g><path d="m452.965 280.874-26.323-26.323c-4.771-4.771-11.269-7.409-18.015-7.314l-34.743.489c4.795.961 9.245 3.312 12.757 6.825l26.323 26.323c4.771 4.771 7.409 11.269 7.314 18.015l-.887 62.982c-.092 6.502-2.715 12.713-7.314 17.311l-115.664 115.665 2.337 2.337c9.755 9.755 25.571 9.755 35.326 0l118.001-118.001c4.598-4.598 7.222-10.809 7.314-17.311l.887-62.982c.095-6.747-2.543-13.245-7.313-18.016z" fill="#ff94e1" data-original="#ff94e1"></path></g></g></g></g><g fill="#060606"><path d="m94.324 342.834h92.423c4.142 0 7.5-3.358 7.5-7.5s-3.358-7.5-7.5-7.5h-92.423c-4.142 0-7.5 3.358-7.5 7.5s3.358 7.5 7.5 7.5z" fill="#060606" data-original="#060606" class=""></path><path d="m94.324 283.914h132.423c4.142 0 7.5-3.358 7.5-7.5s-3.358-7.5-7.5-7.5h-132.423c-4.142 0-7.5 3.358-7.5 7.5s3.358 7.5 7.5 7.5z" fill="#060606" data-original="#060606" class=""></path><path d="m94.324 224.994h182.423c4.142 0 7.5-3.358 7.5-7.5s-3.358-7.5-7.5-7.5h-182.423c-4.142 0-7.5 3.358-7.5 7.5s3.358 7.5 7.5 7.5z" fill="#060606" data-original="#060606" class=""></path><path d="m94.324 166.074h182.423c4.142 0 7.5-3.358 7.5-7.5s-3.358-7.5-7.5-7.5h-182.423c-4.142 0-7.5 3.358-7.5 7.5s3.358 7.5 7.5 7.5z" fill="#060606" data-original="#060606" class=""></path><path d="m94.324 107.154h98.571c4.142 0 7.5-3.358 7.5-7.5s-3.358-7.5-7.5-7.5h-98.571c-4.142 0-7.5 3.358-7.5 7.5s3.358 7.5 7.5 7.5z" fill="#060606" data-original="#060606" class=""></path><path d="m475.512 232.004c-2.929-2.929-7.678-2.929-10.606 0l-25.102 25.102-7.859-7.859c-6.167-6.167-14.729-9.638-23.424-9.509l-62.982.887c-.862.012-1.718.067-2.568.145v-141.755c0-2-.798-3.916-2.218-5.324l-92.237-91.515c-1.376-1.365-3.343-2.176-5.283-2.176h-192.336c-9.262 0-16.797 7.519-16.797 16.761v60.239c0 9.697 15 9.697 15 0v-60.239c0-.971.806-1.761 1.797-1.761h184.837v75.354c0 9.242 7.535 16.761 16.797 16.761h75.44v138.962c-1.758 1.177-3.413 2.531-4.94 4.058l-118.002 118.002c-11.865 11.865-12.53 31.81-1.419 44.41h-152.713c-.991 0-1.796-.79-1.796-1.761v-292.786c0-9.697-15-9.697-15 0v292.786c0 9.242 7.535 16.761 16.796 16.761h167.61l74.94 74.94c12.415 12.416 33.49 12.443 45.933 0l118.001-118.001c6.013-6.013 9.39-14.007 9.51-22.509l.887-62.981c.124-8.72-3.343-17.257-9.51-23.424l-7.858-7.858 25.102-25.102c2.929-2.93 2.929-7.679 0-10.608zm-222.982-139.889c-.991 0-1.797-.79-1.797-1.761v-64.764l66.614 66.525zm195.131 194.063c3.319 3.319 5.184 7.914 5.118 12.606l-.888 62.982c-.064 4.576-1.881 8.877-5.117 12.113l-118.001 118.001c-6.744 6.743-17.976 6.744-24.72 0l-88.417-88.417c-6.744-6.744-6.743-17.976 0-24.72l118.001-118.001c3.236-3.236 7.538-5.053 12.113-5.118l62.982-.886c.081-.001.161-.002.242-.002 4.608 0 9.103 1.858 12.364 5.119l7.858 7.858-16.916 16.916c-11.91-7.154-27.627-5.607-37.885 4.651-12.087 12.087-12.087 31.753 0 43.84 5.855 5.855 13.64 9.08 21.92 9.08 8.281 0 16.065-3.225 21.92-9.08 10.258-10.258 11.806-25.974 4.651-37.885l16.916-16.916zm-40.031 36.336c-6.173 6.173-16.454 6.172-22.628 0-6.238-6.238-6.238-16.389 0-22.627 3.989-3.988 10.61-5.617 15.998-3.977l-7.512 7.512c-6.858 6.856 3.75 17.463 10.606 10.606l7.512-7.512c1.668 5.476.346 11.675-3.976 15.998z" fill="#060606" data-original="#060606" class=""></path><path d="m333.383 340.191c-2.929-2.929-7.678-2.929-10.606 0l-56.568 56.569c-6.858 6.856 3.75 17.463 10.606 10.606l56.568-56.569c2.93-2.928 2.93-7.677 0-10.606z" fill="#060606" data-original="#060606" class=""></path><path d="m335.505 395.346-35.355 35.355c-6.858 6.856 3.75 17.463 10.606 10.606l35.355-35.355c6.858-6.856-3.749-17.463-10.606-10.606z" fill="#060606" data-original="#060606" class=""></path></g></g></g></svg>