<svg height="512" viewBox="0 0 128 128" width="512" xmlns="http://www.w3.org/2000/svg"><g><path d="m120.536 27.321a5 5 0 0 0 -5-5h-103.072a5 5 0 0 0 -5 5v12.857h113.072z" fill="#72d9ff"/><path d="m115.536 105.679a5 5 0 0 0 5-5v-60.5h-113.072v57.1a8.4 8.4 0 0 0 8.4 8.4z" fill="#ecf2fa"/><g fill="#231f20"><path d="m115.54 107.43a6.758 6.758 0 0 0 6.75-6.75v-37.83a1.75 1.75 0 0 0 -3.5 0v37.83a3.254 3.254 0 0 1 -3.25 3.25h-66.05a1.75 1.75 0 0 0 0 3.5z"/><path d="m5.71 97.28a10.166 10.166 0 0 0 10.16 10.15h10.32a1.75 1.75 0 0 0 0-3.5h-10.32a6.663 6.663 0 0 1 -6.66-6.65v-55.35h109.58v14.05a1.75 1.75 0 1 0 3.5 0c-.006-.043.009-15.8 0-15.844v-12.816a6.758 6.758 0 0 0 -6.75-6.75h-103.076a6.758 6.758 0 0 0 -6.75 6.75c.027 7.918-.027 60.78-.004 69.96zm3.5-69.96a3.254 3.254 0 0 1 3.25-3.25h103.076a3.254 3.254 0 0 1 3.25 3.25v11.108h-109.572z"/><path d="m42.62 107.43a1.75 1.75 0 0 0 0-3.5h-9.56a1.75 1.75 0 0 0 0 3.5z"/><path d="m89.367 33a1.75 1.75 0 0 0 0-3.5h-37.8a1.75 1.75 0 0 0 0 3.5z"/><path d="m42.567 33a1.75 1.75 0 0 0 0-3.5h-9.45a1.75 1.75 0 0 0 0 3.5z"/><path d="m24.117 33a1.75 1.75 0 0 0 0-3.5h-9.225a1.75 1.75 0 0 0 0 3.5z"/><path d="m25.867 67.848v-13.948a1.75 1.75 0 0 0 -3.5 0v13.95a1.75 1.75 0 0 0 3.5-.002z"/><path d="m56.017 67.848v-13.948a1.75 1.75 0 0 0 -3.5 0v13.948a1.75 1.75 0 0 0 3.5 0z"/><path d="m56.167 90.573v-13.95a1.75 1.75 0 0 0 -3.5 0v13.95a1.75 1.75 0 1 0 3.5 0z"/><path d="m67.042 67.848v-13.948a1.75 1.75 0 1 0 -3.5 0v13.948a1.75 1.75 0 0 0 3.5 0z"/><path d="m67.267 90.573v-13.95a1.75 1.75 0 0 0 -3.5 0v13.95a1.75 1.75 0 0 0 3.5 0z"/><path d="m97.867 67.848v-13.948a1.75 1.75 0 0 0 -3.5 0v13.948a1.75 1.75 0 0 0 3.5 0z"/><path d="m108.667 67.848v-13.948a1.75 1.75 0 1 0 -3.5 0v13.948a1.75 1.75 0 0 0 3.5 0z"/><path d="m108.667 89.673v-13.95a1.75 1.75 0 0 0 -3.5 0v13.95a1.75 1.75 0 0 0 3.5 0z"/><path d="m97.567 89.673v-13.95a1.75 1.75 0 0 0 -3.5 0v13.95a1.75 1.75 0 0 0 3.5 0z"/><path d="m25.867 90.573v-13.95a1.75 1.75 0 0 0 -3.5 0v13.95a1.75 1.75 0 0 0 3.5 0z"/><path d="m45.217 60.872c0-4.893-2.548-8.725-5.8-8.725s-5.8 3.832-5.8 8.725c.189 11.566 11.411 11.565 11.6 0zm-8.1 0c0-3.141 1.384-5.225 2.3-5.225s2.3 2.084 2.3 5.225-1.384 5.226-2.3 5.226-2.3-2.084-2.3-5.226z"/><path d="m45.067 83.6c0-4.893-2.548-8.725-5.8-8.725s-5.8 3.832-5.8 8.725c.189 11.564 11.411 11.562 11.6 0zm-8.1 0c0-3.141 1.384-5.225 2.3-5.225s2.3 2.084 2.3 5.225-1.385 5.225-2.3 5.225-2.3-2.086-2.3-5.225z"/><path d="m86.467 82.7c-.189-11.565-11.412-11.564-11.6 0 0 4.893 2.548 8.726 5.8 8.726s5.8-3.836 5.8-8.726zm-8.1 0c0-3.14 1.384-5.224 2.3-5.224s2.3 2.084 2.3 5.224-1.384 5.226-2.3 5.226-2.3-2.087-2.3-5.226z"/><path d="m86.505 60.872c-.189-11.565-11.412-11.564-11.6 0 0 4.893 2.547 8.726 5.8 8.726s5.8-3.833 5.8-8.726zm-8.1 0c0-3.141 1.384-5.225 2.3-5.225s2.3 2.084 2.3 5.225-1.385 5.228-2.3 5.228-2.3-2.086-2.3-5.228z"/></g></g></svg>